<?xml version="1.0" encoding="UTF-8" standalone="no"?>
<!-- Created with Inkscape (http://www.inkscape.org/) -->

<svg
   xmlns:dc="http://purl.org/dc/elements/1.1/"
   xmlns:cc="http://creativecommons.org/ns#"
   xmlns:rdf="http://www.w3.org/1999/02/22-rdf-syntax-ns#"
   xmlns:svg="http://www.w3.org/2000/svg"
   xmlns="http://www.w3.org/2000/svg"
   xmlns:sodipodi="http://sodipodi.sourceforge.net/DTD/sodipodi-0.dtd"
   xmlns:inkscape="http://www.inkscape.org/namespaces/inkscape"
   width="208.64285mm"
   height="208.64285mm"
   viewBox="0 0 208.64285 208.64285"
   version="1.1"
   id="svg8"
   inkscape:version="0.92.4 (5da689c313, 2019-01-14)"
   sodipodi:docname="graphic2.svg">
  <defs
     id="defs2" />
  <sodipodi:namedview
     id="base"
     pagecolor="#ffffff"
     bordercolor="#666666"
     borderopacity="1.0"
     inkscape:pageopacity="0.0"
     inkscape:pageshadow="2"
     inkscape:zoom="0.98994949"
     inkscape:cx="118.94054"
     inkscape:cy="554.45677"
     inkscape:document-units="mm"
     inkscape:current-layer="layer1"
     showgrid="false"
     fit-margin-top="0"
     fit-margin-left="0"
     fit-margin-right="0"
     fit-margin-bottom="0"
     inkscape:window-width="1920"
     inkscape:window-height="1017"
     inkscape:window-x="-8"
     inkscape:window-y="309"
     inkscape:window-maximized="1" />
  <metadata
     id="metadata5">
    <rdf:RDF>
      <cc:Work
         rdf:about="">
        <dc:format>image/svg+xml</dc:format>
        <dc:type
           rdf:resource="http://purl.org/dc/dcmitype/StillImage" />
        <dc:title />
      </cc:Work>
    </rdf:RDF>
  </metadata>
  <g
     inkscape:label="Layer 1"
     inkscape:groupmode="layer"
     id="layer1"
     transform="translate(6.0476237,-42.244045)">
    <rect
       style="opacity:1;fill:#e6e6e6;fill-opacity:1;stroke:#ffffff;stroke-width:0;stroke-linecap:round;stroke-linejoin:round;stroke-miterlimit:4;stroke-dasharray:none;stroke-dashoffset:0;stroke-opacity:1"
       id="rect815"
       width="207.50893"
       height="207.50893"
       x="-4.9136944"
       y="43.377975"
       inkscape:export-xdpi="97.9235"
       inkscape:export-ydpi="97.9235"
       inkscape:export-filename="C:\Users\Z\Desktop\rect815.png" />
    <rect
       style="opacity:1;fill:#ffffff;fill-opacity:1;stroke:#ffffff;stroke-width:0;stroke-linecap:round;stroke-linejoin:round;stroke-miterlimit:4;stroke-dasharray:none;stroke-dashoffset:0;stroke-opacity:1"
       id="rect830"
       width="52.368515"
       height="75.985687"
       x="-4.9136944"
       y="43.377975" />
    <path
       style="fill:#2b7033;fill-opacity:1;stroke-width:0.19924259"
       d="m 17.36635,77.711539 c -0.136982,-0.05778 -0.249054,-0.232072 -0.249054,-0.387312 0,-0.214895 0.312588,-0.282262 1.309685,-0.282262 1.139744,0 1.301085,0.04524 1.243401,0.348674 -0.05134,0.270038 -0.290542,0.35739 -1.060633,0.387313 -0.54689,0.02125 -1.106421,-0.0086 -1.243399,-0.06641 z"
       id="path1078"
       inkscape:connector-curvature="0" />
    <path
       style="fill:#2b7033;fill-opacity:1;stroke-width:0.19924259"
       d="m 21.439796,77.488285 c -0.477163,-0.107857 -0.321067,-0.529129 0.225875,-0.609609 0.281225,-0.04138 0.43269,0.04169 0.43269,0.237293 0,0.370932 -0.189844,0.478255 -0.658565,0.372316 z"
       id="path1076"
       inkscape:connector-curvature="0" />
    <path
       style="fill:#09097c;fill-opacity:1;stroke-width:0.17831507"
       d="m 4.3781925,101.19853 c -0.142194,-0.1422 -0.097426,-0.30052 0.1635097,-0.57828 0.3381264,-0.35992 0.3522039,-0.53138 0.2387641,-2.907783 -0.092504,-1.937721 -0.1763973,-2.525312 -0.3605623,-2.525312 -0.1320039,0 -0.2400101,0.08024 -0.2400101,0.178315 0,0.09808 -0.1203623,0.178314 -0.2674727,0.178314 -0.356298,0 -0.3372635,-0.234035 0.086606,-1.064896 0.4444287,-0.87115 0.7267348,-1.055379 0.9722522,-0.634482 0.1041395,0.178531 0.4077779,0.52484 0.6747502,0.769573 0.5189593,0.47573 0.4976,0.832839 -0.039622,0.662332 -0.454733,-0.144326 -0.5403871,0.07964 -0.4198131,1.097719 l 0.1044125,0.881639 2.4927097,0.02283 c 2.3049133,0.02111 2.8380443,0.08534 2.6090473,0.314332 -0.04817,0.04818 -1.1849285,0.09408 -2.5261301,0.102017 l -2.4385466,0.01442 v 0.717139 0.717138 l 0.9361532,-0.120086 c 0.5148849,-0.06605 1.176881,-0.189537 1.4711008,-0.274425 0.2942202,-0.08489 1.0162352,-0.292828 1.6044792,-0.462096 0.6365365,-0.183163 1.2737545,-0.511979 1.5739725,-0.812198 0.282212,-0.28221 0.699048,-0.504439 0.946183,-0.504439 0.247029,0 0.692923,-0.237608 1.011593,-0.539056 0.587212,-0.555479 1.29368,-0.847551 1.514314,-0.626057 0.06899,0.06926 -0.07518,0.283804 -0.320357,0.476769 -0.245182,0.192967 -0.567743,0.446845 -0.716801,0.564174 -0.778906,0.613109 -1.565111,1.135839 -2.002502,1.33142 -1.6920825,0.756623 -2.7663115,1.062796 -4.9482456,1.410331 -0.7741654,0.123308 -1.1857478,0.410282 -0.8691033,0.605978 0.1197185,0.074 1.4475066,0.1438 2.9506394,0.15512 l 2.7329725,0.0206 v -0.786231 c 0,-0.739009 0.330953,-1.331078 0.59593,-1.066102 0.06454,0.06453 0.117329,0.505165 0.117329,0.979189 v 0.861854 h 0.993471 c 0.922081,0 0.972387,-0.0211 0.700084,-0.29338 -0.348061,-0.348065 -0.03653,-0.656078 0.43027,-0.425404 0.462078,0.228343 1.534134,0.540474 1.856347,0.540474 0.412195,0 0.399665,0.71143 -0.01266,0.71893 -0.171628,0.003 -0.467812,0.12348 -0.658184,0.26747 -0.441136,0.33365 -0.881243,0.34043 -0.755067,0.0116 0.13856,-0.36108 -8.5695051,-0.38389 -9.429171,-0.0247 -0.4189129,0.17503 -0.6304585,0.18742 -0.7726525,0.0452 z"
       id="path1074"
       inkscape:connector-curvature="0" />
    <path
       style="fill:#2b7033;fill-opacity:1;stroke-width:0.19924261"
       d="m 2.0120376,66.474928 c -0.2157927,0.0043 -0.429607,0.08055 -0.5951514,0.246094 -0.3506924,0.350692 -0.2911254,1.173318 0.105792,1.463551 0.2864947,0.209491 0.4378317,0.185868 0.8966873,-0.140866 0.3035791,-0.216168 0.5515895,-0.548495 0.5515895,-0.738283 0,-0.501095 -0.4841737,-0.839958 -0.9589174,-0.830496 z m -0.037338,0.803907 c 0.1095836,0 0.1991381,0.09012 0.1991381,0.199704 0,0.109581 -0.089555,0.199137 -0.1991381,0.199137 -0.1095827,0 -0.199138,-0.08955 -0.199138,-0.199137 0,-0.109582 0.089555,-0.199704 0.199138,-0.199704 z m 0.035076,1.992512 c -0.6992762,0 -1.11549185,1.231169 -0.5928884,1.753772 0.532457,0.532456 1.5612057,0.07132 1.5478459,-0.693588 -0.00941,-0.53915 -0.4787349,-1.060184 -0.9549575,-1.060184 z m 0.010749,2.673089 c -0.1301752,-0.0082 -0.2536778,0.0435 -0.4276941,0.152183 -0.500641,0.312654 -0.5422569,1.087745 -0.085426,1.592538 0.3993078,0.441221 0.3663002,0.439623 0.9724952,0.04242 0.6380708,-0.418073 0.6426328,-1.163621 0.00962,-1.578389 C 2.2876424,72.020917 2.1506988,71.95261 2.0205246,71.944436 Z m 0.027155,0.782975 c 0.01812,0.0027 0.039512,0.03375 0.063362,0.09335 0.057554,0.143827 0.050368,0.315658 -0.015841,0.381869 -0.066203,0.0662 -0.1133202,-0.05189 -0.1046607,-0.261934 0.00597,-0.145072 0.026939,-0.217856 0.057139,-0.213281 z m 0.2330822,1.950082 c -0.2320701,-0.01255 -0.4939331,0.0821 -0.7382817,0.303233 -0.4193425,0.3795 -0.470787,0.879053 -0.1255928,1.224246 0.1314998,0.131499 0.4272564,0.239305 0.6573818,0.239305 0.5340619,0 0.8966871,-0.362625 0.8966871,-0.896686 0,-0.530119 -0.3034109,-0.849182 -0.6901944,-0.870098 z m 0.042996,0.773357 c 0.1989834,0.0017 0.2630565,0.06731 0.1493535,0.152183 -0.1095833,0.08178 -0.266869,0.229516 -0.3490573,0.32869 -0.082185,0.09918 -0.1493536,0.03102 -0.1493536,-0.151617 0,-0.184592 0.1552362,-0.331008 0.3490574,-0.329256 z"
       id="path1072"
       inkscape:connector-curvature="0" />
    <path
       style="fill:#2b7033;fill-opacity:1;stroke-width:0.19924259"
       d="m 4.2163375,76.312227 c -0.2872632,-0.115856 -0.3431833,-1.262688 -0.061569,-1.262688 0.1031166,0 0.2392478,0.08375 0.3025147,0.186125 0.063272,0.10236 0.423278,0.136099 0.8000251,0.07496 0.9108354,-0.147809 1.4260139,0.04451 1.1169177,0.416944 -0.1254506,0.151161 -0.4717693,0.316736 -0.7695992,0.367949 -0.2978292,0.05121 -0.6759968,0.143523 -0.8403717,0.20513 -0.164375,0.0616 -0.4109379,0.06681 -0.547917,0.01161 z"
       id="path1068"
       inkscape:connector-curvature="0" />
    <path
       style="fill:#2b7033;fill-opacity:1;stroke-width:0.19924259"
       d="m 6.993065,75.701168 c 0.042013,-0.218158 0.2778902,-0.360841 0.642902,-0.388895 0.317098,-0.02438 0.6748614,-0.08168 0.7950296,-0.127345 0.3682424,-0.139936 1.1150807,0.232142 1.1150807,0.555539 0,0.243257 -0.2661075,0.305284 -1.3096866,0.305284 -1.1341473,0 -1.300792,-0.04619 -1.2433257,-0.344583 z"
       id="path1066"
       inkscape:connector-curvature="0" />
    <path
       style="fill:#2b7033;fill-opacity:1;stroke-width:0.19924259"
       d="m 11.488692,75.902908 c -0.793811,-0.12006 -0.742456,-0.77898 0.0747,-0.958459 0.409995,-0.09005 0.674551,-0.05272 0.774694,0.109323 0.09527,0.154146 0.253436,0.181205 0.423407,0.07243 0.314324,-0.201144 0.729196,-0.27216 1.941023,-0.33225 0.637899,-0.03164 0.930861,0.04797 1.088789,0.295844 0.11884,0.186514 0.163568,0.391611 0.0994,0.455769 -0.207174,0.207175 -3.583002,0.481214 -4.402022,0.357346 z"
       id="path1064"
       inkscape:connector-curvature="0" />
    <path
       style="fill:#2b7033;fill-opacity:1;stroke-width:0.19924259"
       d="m 18.010109,75.840397 c -0.0736,-0.119106 -0.413289,-0.151634 -0.808729,-0.07744 -0.66606,0.124952 -0.708313,0.0939 -0.761509,-0.559737 -0.01954,-0.240042 0.685535,-0.402888 1.673637,-0.386555 0.273958,0.0045 1.319492,0.0096 2.323406,0.01137 1.003915,0.0017 1.877322,0.08727 1.940903,0.190151 0.0636,0.102875 -0.110692,0.335334 -0.387293,0.516567 -0.379463,0.248632 -0.819941,0.308785 -1.794566,0.245068 -0.710417,-0.04644 -1.340396,-0.0056 -1.399954,0.09076 -0.148014,0.239494 -0.630692,0.220976 -0.785895,-0.03015 z"
       id="path1062"
       inkscape:connector-curvature="0" />
    <path
       style="fill:#2b7033;fill-opacity:1;stroke-width:0.19924259"
       d="M 3.7053069,73.380258 C 3.5408258,72.951627 3.9690278,72.66894 4.5935738,72.79385 c 0.3257414,0.06514 0.6959108,0.0077 0.8675354,-0.13481 0.2388539,-0.198229 0.3597632,-0.198313 0.5982227,-4e-4 0.2225949,0.18474 0.3676874,0.190917 0.5685523,0.02422 0.3081981,-0.255781 1.3619475,-0.229806 1.5482413,0.03817 0.068398,0.0984 0.3620925,0.02313 0.6526442,-0.167243 0.4890644,-0.320449 0.5549404,-0.32201 0.887533,-0.02102 0.4023893,0.364145 0.8259873,0.428703 0.8259873,0.125868 0,-0.254393 0.934004,-0.261847 1.090457,-0.0087 0.06477,0.104801 0.240308,0.143513 0.390089,0.08603 0.541575,-0.207822 0.502066,0.296858 -0.04459,0.569564 -0.411215,0.205142 -0.650572,0.222974 -0.897997,0.0669 -0.24465,-0.154321 -0.446279,-0.144756 -0.733812,0.0348 -0.5363807,0.335004 -0.9875354,0.311673 -1.12954,-0.05839 C 9.1139457,73.080557 9.0457454,73.078031 8.6636854,73.328372 8.374324,73.517969 8.1190914,73.553015 7.9040586,73.432669 7.7093233,73.323697 7.53539,73.323971 7.4677795,73.433268 7.3507887,73.622563 6.1148219,73.574901 5.7803692,73.3682 5.6749832,73.30308 5.5324411,73.3409 5.4636101,73.45227 5.2727851,73.761032 3.8287313,73.701823 3.7053046,73.38018 Z"
       id="path1056"
       inkscape:connector-curvature="0" />
    <path
       style="fill:#2b7033;fill-opacity:1;stroke-width:0.19924259"
       d="m 13.730171,72.902331 c 0,-0.33718 0.213189,-0.404911 1.743373,-0.553877 3.118278,-0.30357 4.632391,-0.10973 4.632391,0.593061 0,0.189809 -0.292923,0.268863 -0.996215,0.268863 -0.547916,0 -0.996212,-0.0846 -0.996212,-0.188011 0,-0.103412 -0.0878,-0.133743 -0.195128,-0.06742 -0.10733,0.06632 -1.093571,0.168059 -2.191669,0.226067 -1.875355,0.09907 -1.99654,0.08214 -1.99654,-0.278687 z"
       id="path1054"
       inkscape:connector-curvature="0" />
    <path
       style="fill:#09097c;fill-opacity:1;stroke-width:0.17831507"
       d="m 11.170005,95.486546 c -0.377063,-1.042747 -0.199107,-1.549955 0.32306,-0.920782 0.19377,0.233479 0.340842,0.148566 1.082562,-0.625033 0.472078,-0.49237 1.068278,-0.97504 1.324885,-1.072603 0.602768,-0.22917 1.513234,-0.228612 1.513234,9.38e-4 0,0.09808 -0.155749,0.178314 -0.346107,0.178314 -0.19036,0 -0.395698,0.08024 -0.456312,0.178316 -0.06062,0.09808 -0.229327,0.178314 -0.374922,0.178314 -0.426438,0 -1.713766,1.281468 -1.501033,1.4942 0.314579,0.314577 0.193464,0.546333 -0.453856,0.868475 -0.832227,0.41416 -0.863283,0.406333 -1.111511,-0.280133 z"
       id="path1052"
       inkscape:connector-curvature="0" />
    <path
       style="fill:#2b7033;fill-opacity:1;stroke-width:0.19924259"
       d="m 9.4891799,70.941374 c -0.074638,-0.07463 -0.4285905,-0.14467 -0.7865631,-0.155627 -0.5113898,-0.01567 -0.6508593,-0.105316 -0.6508593,-0.41841 0,-0.315785 0.1137106,-0.386583 0.5479169,-0.341133 0.3013548,0.03154 0.5479169,-0.03569 0.5479169,-0.149431 0,-0.113733 0.1793192,-0.206785 0.398486,-0.206785 0.2339921,0 0.398485,0.132828 0.398485,0.32178 0,0.295607 0.039666,0.295787 0.4877157,0.0022 0.285761,-0.187239 0.53647,-0.240681 0.605454,-0.129062 0.06475,0.104779 0.383237,0.137401 0.707738,0.07249 0.437727,-0.08755 0.590003,-0.04312 0.590003,0.1721 0,0.394098 -0.765828,0.764888 -1.494319,0.723506 -0.32875,-0.01866 -0.7369,0.0286 -0.9069994,0.105054 -0.1700985,0.07646 -0.3703373,0.07793 -0.4449747,0.0033 z"
       id="path1048"
       inkscape:connector-curvature="0" />
    <path
       style="fill:#2b7033;fill-opacity:1;stroke-width:0.19924259"
       d="m 3.8952333,70.566577 c -0.2019367,-0.526235 0.077423,-0.922033 0.5439424,-0.770657 0.5204779,0.168885 1.4360731,0.284642 2.168073,0.274109 0.5890376,-0.0084 0.6906255,0.174521 0.3088259,0.556323 -0.3664395,0.366439 -2.8763459,0.316777 -3.0208413,-0.05976 z"
       id="path1046"
       inkscape:connector-curvature="0" />
    <path
       style="fill:#2b7033;fill-opacity:1;stroke-width:0.19924259"
       d="m 13.172902,70.105146 c 0.04051,-0.210375 0.343608,-0.375017 0.838443,-0.455451 1.009818,-0.16414 1.512008,-0.02077 1.512008,0.431618 0,0.314129 -0.167809,0.364054 -1.206949,0.359084 -1.013663,-0.0049 -1.196791,-0.05853 -1.143502,-0.335251 z"
       id="path1044"
       inkscape:connector-curvature="0" />
    <path
       style="fill:#2b7033;fill-opacity:1;stroke-width:0.19924259"
       d="m 19.117127,70.177005 c -0.186135,-0.224277 -0.321829,-0.23923 -0.599172,-0.06603 -0.277617,0.173373 -0.523747,0.145519 -1.090489,-0.123416 -0.857021,-0.406683 -0.835867,-0.752961 0.05716,-0.935603 0.471011,-0.09633 0.682185,-0.04833 0.812601,0.184708 0.152935,0.273279 0.221077,0.277629 0.515914,0.03294 0.297461,-0.246869 0.374808,-0.233929 0.621953,0.104058 0.240356,0.328706 0.341857,0.348766 0.683893,0.135161 0.404016,-0.252311 0.783924,-0.170995 0.783924,0.167794 0,0.188964 -1.035142,0.790327 -1.360409,0.790327 -0.101606,0 -0.293024,-0.130471 -0.42537,-0.289939 z"
       id="path1042"
       inkscape:connector-curvature="0" />
    <path
       style="fill:#2b7033;fill-opacity:1;stroke-width:0.19924259"
       d="m 4.2163375,67.816001 c -0.8778642,-0.265834 -0.8789892,-0.856214 -0.00189,-0.984946 0.4340878,-0.0637 0.7179218,0.004 0.8661785,0.20681 0.1577054,0.215676 0.2609054,0.236226 0.36231,0.07216 0.1891162,-0.305996 0.8523919,-0.292956 0.9982638,0.01961 0.09298,0.199243 0.1394704,0.199243 0.2324502,0 0.063926,-0.136977 0.2880711,-0.249053 0.4981061,-0.249053 0.5086895,0 0.5061511,0.716444 -0.00353,0.989203 -0.4910346,0.262794 -1.3470643,0.266468 -1.5077507,0.0065 -0.072895,-0.117939 -0.2613647,-0.13104 -0.4600588,-0.03198 -0.1896282,0.09454 -0.6193038,0.08218 -0.9841217,-0.02829 z"
       id="path1036"
       inkscape:connector-curvature="0" />
    <path
       style="fill:#2b7033;fill-opacity:1;stroke-width:0.19924259"
       d="m 11.236235,67.871298 c -0.09353,-0.151333 -0.433858,-0.188351 -0.979448,-0.106543 -0.6847306,0.102689 -0.9018228,0.05279 -1.1990193,-0.275618 -0.3510663,-0.387925 -0.3510354,-0.405558 9.027e-4,-0.540625 0.2196238,-0.08429 0.3960073,-0.04314 0.4449815,0.103772 0.05097,0.152889 0.1665456,0.1765 0.310812,0.0635 0.1263236,-0.09895 0.5705851,-0.232305 0.9872491,-0.296341 0.572632,-0.088 0.786118,-0.04205 0.874508,0.188299 0.0888,0.231417 0.153799,0.245091 0.270145,0.05683 0.08426,-0.136344 0.319927,-0.260181 0.523694,-0.275192 0.203765,-0.01501 0.473754,-0.09112 0.599971,-0.169125 0.126219,-0.078 0.356664,-0.01465 0.512101,0.140783 0.183569,0.183567 0.381222,0.220193 0.563981,0.104495 0.394347,-0.24963 0.520812,-0.227953 0.651115,0.11161 0.164731,0.429281 -0.599493,0.775457 -1.764447,0.799253 -0.547918,0.01114 -1.144048,0.0893 -1.324735,0.173571 -0.193256,0.09012 -0.387536,0.05772 -0.471852,-0.0787 z"
       id="path1034"
       inkscape:connector-curvature="0" />
    <path
       style="fill:#2b7033;fill-opacity:1;stroke-width:0.19924259"
       d="m 15.399824,67.388239 c -0.165209,-0.43053 0.106181,-0.739251 0.531255,-0.604337 0.205807,0.06531 0.544514,0.02762 0.752682,-0.08381 0.277209,-0.148359 0.479153,-0.12465 0.754685,0.08857 0.368241,0.284984 0.368015,0.297466 -0.01051,0.59001 -0.504456,0.389815 -1.879656,0.396284 -2.028064,0.0095 z"
       id="path1032"
       inkscape:connector-curvature="0" />
    <path
       style="fill:#09097c;fill-opacity:1;stroke-width:0.17831507"
       d="m 16.394478,92.516837 c -0.196147,-0.08187 -0.536427,-0.107837 -0.756177,-0.05771 -0.488555,0.111432 -0.727595,-0.357847 -0.389679,-0.765013 0.170262,-0.20515 0.399344,-0.247681 0.866948,-0.160956 0.831409,0.154201 1.332126,0.587919 1.058862,0.917182 -0.224633,0.270667 -0.279543,0.275348 -0.779954,0.0665 z"
       id="path1030"
       inkscape:connector-curvature="0" />
    <path
       style="fill:#853232;fill-opacity:1;stroke-width:0.20543565"
       d="m 23.840952,83.542603 c -0.05201,0.01058 -0.102319,0.07922 -0.167996,0.196577 -0.109526,0.195714 -0.124296,0.51203 -0.03325,0.702896 0.09104,0.190869 0.228148,3.073972 0.305076,6.407161 0.07693,3.3332 0.204743,6.45311 0.284075,6.93331 0.110572,0.66927 0.235327,0.87323 0.533735,0.87323 0.421926,0 0.525387,-0.58481 0.211162,-1.19463 -0.09806,-0.1903 -0.23841,-3.15078 -0.312075,-6.57866 -0.109893,-5.113521 -0.193232,-6.345933 -0.461988,-6.865647 -0.180052,-0.348185 -0.272063,-0.491879 -0.358741,-0.474237 z m 5.008951,1.124052 -1.283884,0.06125 -1.283882,0.06125 -0.06125,1.386546 -0.06066,1.386547 h 1.345129 1.34455 v -1.447796 z m -1.336381,0.701732 c 0.135781,-0.0071 0.282333,0.01561 0.431654,0.07291 0.397374,0.152487 0.368802,1.224507 -0.03675,1.380129 -0.793216,0.304387 -1.112969,0.100875 -1.112969,-0.707564 0,-0.434014 0.310715,-0.72414 0.718065,-0.745479 z m 6.104419,0.250243 c -0.0583,8.3e-4 -0.104797,0.02813 -0.138247,0.08225 -0.07587,0.122743 -0.364432,0.162056 -0.654483,0.08925 -0.456974,-0.11469 -0.510634,-0.07195 -0.449738,0.35874 0.04847,0.342711 0.202359,0.488821 0.513319,0.488821 0.244022,0 0.503419,0.05972 0.576902,0.132414 0.228255,0.225791 2.616516,0.179469 3.437493,-0.0665 1.119321,-0.335357 1.009699,-0.749899 -0.195413,-0.739063 -0.536698,0.0049 -1.091311,0.100599 -1.232549,0.212328 -0.183401,0.145106 -0.256659,0.107965 -0.256659,-0.130081 0,-0.19635 -0.169196,-0.333658 -0.411241,-0.333658 -0.225977,0 -0.410656,0.10691 -0.410656,0.237412 0,0.138692 -0.162586,0.09047 -0.390821,-0.116082 -0.160398,-0.14516 -0.290739,-0.217211 -0.387907,-0.215826 z m -3.02217,0.0945 c -0.787499,0 -0.923975,0.06124 -0.923975,0.411241 0,0.464318 0.760066,0.568264 1.451296,0.198327 0.665615,-0.356228 0.446576,-0.609568 -0.527321,-0.609568 z m -2.567765,2.465677 c -0.22598,0 -0.410656,0.0923 -0.410656,0.20533 0,0.11299 -0.272015,0.20533 -0.604316,0.20533 -0.632315,0 -0.989964,0.29039 -0.63115,0.51215 0.137457,0.0849 0.140976,0.25669 0.0105,0.50049 -0.109324,0.20426 -0.140172,0.42973 -0.06883,0.50107 0.195714,0.19571 0.431163,0.15669 0.588568,-0.098 0.08254,-0.13353 0.428459,-0.18192 0.834143,-0.11608 0.72859,0.11824 0.924588,-0.16388 0.446241,-0.64223 -0.191739,-0.19174 -0.191739,-0.30117 0,-0.49291 0.36218,-0.36218 0.301167,-0.57515 -0.164498,-0.57515 z m 5.911343,0.40599 c -0.238017,-0.007 -0.569946,0.1189 -0.646316,0.31791 -0.08424,0.21954 -0.275002,0.2743 -0.63815,0.18316 -0.447889,-0.11241 -0.517985,-0.0621 -0.517985,0.37158 0,0.27588 0.06276,0.5644 0.139411,0.64106 0.07667,0.0767 0.469103,0.0731 0.872645,-0.007 0.702176,-0.14047 1.057099,-0.14347 1.966363,-0.0175 0.292886,0.0405 0.411241,-0.0612 0.411241,-0.35407 0,-0.28627 -0.202712,-0.47028 -0.6679,-0.60723 -0.367215,-0.10811 -0.667317,-0.27028 -0.667317,-0.35991 0,-0.11174 -0.10918,-0.16337 -0.251992,-0.16741 z m -3.65157,0.10733 c -0.320439,0 -0.533227,0.13254 -0.5769,0.35933 -0.0541,0.28089 0.07183,0.35991 0.5769,0.35991 0.505068,0 0.631577,-0.079 0.577484,-0.35991 -0.04368,-0.22679 -0.257041,-0.35933 -0.577484,-0.35933 z m 7.949456,1.75929 c -0.174966,-0.0118 -0.433249,0.20681 -0.671982,0.7099 -0.234555,0.49428 -0.416378,0.66298 -0.574568,0.53198 -0.302246,-0.25028 -3.237171,-0.22058 -3.570489,0.0362 -0.14152,0.109 -0.541069,0.14165 -0.887811,0.0723 -0.511608,-0.10232 -0.617617,-0.0632 -0.564068,0.20883 0.109223,0.55488 0.689965,0.80578 1.233717,0.53256 0.584837,-0.29384 2.995887,-0.2212 3.557074,0.10734 0.22598,0.13228 0.419427,0.24336 0.430489,0.24674 0.156046,0.049 0.888695,-0.87005 1.090221,-1.36788 0.26962,-0.66605 0.182369,-1.06277 -0.04258,-1.07797 z m -10.506138,0.30099 c -0.08493,-0.002 -0.192345,0.0288 -0.31849,0.0962 -0.211694,0.11329 -0.585569,0.20591 -0.831228,0.20591 -0.368117,0 -0.425118,0.0861 -0.323742,0.48999 0.07784,0.31012 0.01059,0.58352 -0.183161,0.74431 -0.168392,0.13975 -0.306242,0.38159 -0.306242,0.53724 0,0.41313 0.495933,0.34563 0.922225,-0.12542 0.368668,-0.40733 0.370311,-0.40746 0.726231,0.003 0.221698,0.25562 0.486805,0.36144 0.700564,0.27941 0.306376,-0.11757 0.293181,-0.18581 -0.121913,-0.62766 -0.397652,-0.42328 -0.428772,-0.55673 -0.209996,-0.90705 0.252761,-0.40473 0.20055,-0.69166 -0.05425,-0.6959 z m 2.483186,0.7134 c -0.716091,0 -1.07478,0.22135 -0.801481,0.49465 0.227596,0.2276 1.349337,0.0424 1.441378,-0.23799 0.05673,-0.17281 -0.152681,-0.25666 -0.639897,-0.25666 z m -1.364966,1.81587 c -0.224678,-0.004 -0.727562,0.332 -1.114137,0.85456 -0.464632,0.6281 -0.662708,0.76153 -0.873225,0.58681 -0.149735,-0.12426 -0.271827,-0.34351 -0.271827,-0.48706 0,-0.27675 -0.601099,-0.59413 -0.782228,-0.41299 -0.05892,0.0589 0.150364,0.61554 0.464904,1.23722 0.314541,0.62167 0.646653,1.13046 0.73848,1.13046 0.203357,0 1.016722,-1.11486 1.016722,-1.39354 0,-0.10996 0.144007,-0.31913 0.31966,-0.4649 0.175653,-0.14579 0.409527,-0.43405 0.520317,-0.64107 0.150703,-0.28159 0.116143,-0.40693 -0.01866,-0.40949 z m 3.091001,0.54656 -0.0047,0.73615 c -0.0025,0.40488 0.05709,0.79791 0.132414,0.87323 0.238037,0.23804 2.123275,0.1541 2.123275,-0.0945 0,-0.14461 0.219278,-0.18714 0.586234,-0.11375 0.364561,0.0729 0.756517,-0.002 1.035972,-0.19774 0.366993,-0.25706 0.507592,-0.26649 0.764731,-0.0531 0.527545,0.43783 0.78018,-0.22938 0.27766,-0.73323 -0.390018,-0.39105 -0.423904,-0.39226 -1.020807,-0.0396 -0.340375,0.20107 -0.61715,0.26728 -0.61715,0.14758 0,-0.33149 -0.604065,-0.25808 -0.981139,0.119 -0.220016,0.22001 -0.362094,0.25535 -0.412991,0.10266 -0.100655,-0.30197 -0.798518,-0.30209 -0.985222,0 -0.09546,0.15446 -0.272039,0.0677 -0.521488,-0.25666 z m -1.96053,0.51333 c -0.508454,0 -0.924557,0.0923 -0.924557,0.20532 0,0.113 0.416103,0.20591 0.924557,0.20591 0.508455,0 0.924558,-0.0929 0.924558,-0.20591 0,-0.11298 -0.416103,-0.20532 -0.924558,-0.20532 z m -1.55396,1.83628 c -0.2176,0.0348 -0.553307,0.2484 -0.795645,0.55649 -0.400718,0.50943 -0.451257,0.52227 -0.801477,0.20533 -0.205583,-0.18606 -0.435727,-0.33833 -0.51157,-0.33833 -0.29243,0 -0.118516,0.79154 0.287576,1.3078 0.234178,0.29771 0.501971,0.54131 0.594983,0.54131 0.171023,0 1.44488,-1.87243 1.44488,-2.12385 0,-0.12641 -0.08819,-0.16962 -0.218747,-0.14875 z m 1.771539,0.21816 c -0.82075,0 -1.105495,0.2923 -0.581569,0.59732 0.433177,0.25219 0.537899,0.26312 0.96364,0.0997 0.615518,-0.2362 0.362867,-0.69707 -0.382071,-0.69707 z m 1.943614,0.42058 c -0.160694,0.0115 -0.205012,0.17422 -0.09392,0.46373 0.08042,0.20957 0.431756,0.34952 0.980559,0.39024 1.055926,0.0784 1.658221,-0.0949 1.738286,-0.49932 0.04625,-0.23364 -0.141821,-0.30799 -0.775814,-0.30799 -0.460128,0 -0.884928,0.078 -0.943806,0.17325 -0.05889,0.0953 -0.283134,0.0629 -0.498736,-0.0717 -0.17189,-0.10735 -0.310157,-0.15503 -0.406573,-0.14816 z"
       id="path1028"
       inkscape:connector-curvature="0" />
    <path
       style="fill:#09097c;fill-opacity:1;stroke-width:0.19924261"
       d="m 2.7565423,52.088334 c -0.6624097,0.02401 -1.97723736,0.490259 -1.97723736,0.783541 0,0.329752 0.87424736,0.340481 1.39226936,0.01697 0.3083859,-0.192589 0.4427275,-0.192589 0.6353182,0 0.2797791,0.279784 2.953693,0.342242 2.953693,0.06902 0,-0.362766 -0.5302554,-0.576908 -1.4658147,-0.592323 -0.5321505,-0.0088 -1.0755283,-0.105743 -1.2078403,-0.215544 -0.059218,-0.04914 -0.1775242,-0.0672 -0.3303882,-0.06166 z m -0.064494,1.357194 c -0.2683385,0.0032 -0.5024912,0.04047 -0.7077324,0.112015 -1.05174088,0.36664 -0.6656924,0.57139 1.0771559,0.57139 1.8697621,0 2.841205,0.28615 2.4739512,0.728665 -0.1221451,0.147174 -0.4442769,0.267592 -0.7156523,0.267592 -0.6535865,0 -1.6935455,0.506744 -2.2448291,1.093562 -0.3797108,0.404183 -0.4577329,0.753808 -0.5346179,2.398708 -0.078836,1.686634 -0.045114,1.960616 0.2709862,2.209754 0.8565921,0.675133 1.9588104,1.096944 3.1584882,1.208972 1.3725635,0.128171 1.5687268,0.359036 1.0805501,1.271202 -0.1811125,0.33837 -0.405919,0.380506 -1.8431585,0.346229 l -1.6366661,-0.03904 1.3453138,-0.06959 c 0.7396882,-0.03833 1.3447475,-0.144184 1.3447475,-0.235345 0,-0.422711 -0.649,-0.646752 -1.6870164,-0.58214 -0.6065481,0.03775 -1.1027629,-0.0085 -1.102614,-0.102397 1.501e-4,-0.09391 -0.1233584,-0.123023 -0.2743804,-0.06505 -0.151022,0.05795 -0.3530855,0.03234 -0.4486264,-0.05714 -0.095541,-0.08948 -0.4647325,-0.224228 -0.820879,-0.299273 -0.48567259,-0.102337 -0.64776434,-0.06706 -0.64776434,0.140867 0,0.403561 1.08888514,1.143696 1.73566944,1.180119 0.3198685,0.01801 0.151849,0.08139 -0.3954476,0.149354 -1.66644388,0.206936 -1.0406828,0.51032 1.3956639,0.676617 2.6087573,0.178065 3.6399269,0.07318 3.6399269,-0.371121 0,-0.161137 0.1119434,-0.654456 0.2489226,-1.096391 0.2101892,-0.678133 0.3114621,-0.781345 0.6477644,-0.661908 0.2191672,0.07784 1.1601016,0.178707 2.09095,0.224596 0.930848,0.04588 1.793407,0.166961 1.916704,0.269289 0.123298,0.102328 0.385367,0.610804 0.582705,1.129769 0.197339,0.518967 0.500686,1.054673 0.673788,1.190303 0.212623,0.166608 0.960354,0.231127 2.304798,0.199138 1.714744,-0.04081 1.999497,-0.09558 2.057005,-0.396013 0.06,-0.313403 -0.136283,-0.348492 -1.939899,-0.348492 H 13.7312 L 13.237315,63.46636 c -0.271498,-0.562786 -0.450358,-1.092672 -0.397711,-1.177856 0.05264,-0.08519 0.476224,-0.218027 0.94138,-0.294747 1.197627,-0.197522 1.343616,-0.379965 1.343616,-1.676833 0,-1.232464 -0.09876,-1.089749 1.853908,-2.668564 l 0.945905,-0.764871 2.703073,0.02319 c 2.112492,0.01795 2.684946,-0.03306 2.618779,-0.23195 -0.122673,-0.368742 -0.972728,-0.50288 -3.349706,-0.529527 l -2.101698,-0.02376 -1.236693,0.996255 c -0.67996,0.547917 -1.27516,0.996257 -1.322684,0.996257 -0.04753,0 -0.146944,-0.405443 -0.221202,-0.900648 -0.156724,-1.045129 -0.702911,-1.575795 -1.958568,-1.903694 -0.450892,-0.117744 -1.144236,-0.2969 -1.540492,-0.398276 -0.396254,-0.101378 -1.6386358,-0.184429 -2.7607768,-0.184429 -1.9389618,0 -2.0597283,-0.02503 -2.4320867,-0.49841 -0.2761259,-0.351037 -0.5850772,-0.497845 -1.0471722,-0.497845 -0.3606314,0 -1.1119253,-0.08661 -1.6694783,-0.19235 -0.3425405,-0.06497 -0.6453207,-0.096 -0.9136593,-0.09278 z m 14.9924937,1.229338 c -0.145565,0.01152 -0.265559,0.06942 -0.293615,0.151616 -0.158843,0.465305 0.303087,0.709534 1.395664,0.738283 0.627369,0.01651 1.188444,0.108244 1.247441,0.203663 0.059,0.09546 0.570477,0.14649 1.135992,0.113713 0.754646,-0.04375 1.027937,-0.139326 1.027937,-0.358675 0,-0.177913 -0.201323,-0.310737 -0.497844,-0.328691 -0.273958,-0.01658 -0.58796,-0.04977 -0.69755,-0.07354 -0.109583,-0.02372 -0.275701,-0.02927 -0.369424,-0.01245 -0.09372,0.01682 -0.273392,-0.05055 -0.398841,-0.149354 -0.125447,-0.09879 -0.631552,-0.190505 -1.124678,-0.203664 -0.493124,-0.01315 -1.066093,-0.04749 -1.273465,-0.07637 -0.05184,-0.0072 -0.103094,-0.0084 -0.151617,-0.0045 z m -8.7286962,0.483136 c 0.5955481,0.0086 1.1161192,0.0632 1.2825172,0.144262 0.221864,0.108087 0.717375,0.241746 1.100916,0.29701 2.311414,0.333055 2.279364,0.47676 -0.112014,0.499543 -2.1281113,0.02029 -2.5220186,0.07999 -3.4362639,0.52104 -0.5678881,0.273958 -1.1226115,0.497845 -1.2327323,0.497845 -0.1101204,0 -0.2002696,0.0714 -0.2002696,0.158971 0,0.08758 -0.297416,0.267244 -0.661342,0.398842 C 5.332731,57.807112 4.9067809,57.901936 4.7501854,57.886534 4.0785701,57.820444 3.1736972,57.413531 3.0643008,57.12845 2.9212145,56.755572 3.8197455,55.922307 4.3649212,55.922307 c 0.2065882,0 0.4312473,-0.08955 0.4989767,-0.199137 0.2201941,-0.356282 1.064837,-0.21105 1.3786917,0.237042 0.3403797,0.485962 0.6138205,0.350135 0.6138205,-0.30493 0,-0.397221 0.1146403,-0.435056 1.4895753,-0.489926 0.2047945,-0.0082 0.4113443,-0.01023 0.6098604,-0.0073 z m -0.334914,1.76735 0.6619075,0.504634 c 0.3640687,0.27769 0.661908,0.545366 0.661908,0.594586 0,0.04922 -0.7175681,0.08939 -1.594236,0.08939 -0.8766676,0 -1.5917828,-0.06717 -1.5891444,-0.149354 0.00262,-0.08219 0.4223502,-0.349868 0.9323282,-0.594585 z m 4.3787742,0.01358 c 1.006882,-0.01508 1.340163,0.04437 1.279688,0.228556 -0.08925,0.271813 -0.981847,0.447759 -1.194262,0.235345 -0.07253,-0.07253 -0.427491,-0.202293 -0.789197,-0.287959 -0.535925,-0.126914 -0.40572,-0.159312 0.703771,-0.175942 z m -2.446795,0.393752 c 0.168939,0 0.533576,0.127703 1.085076,0.383003 l 0.797117,0.368857 -0.716217,0.01471 c -0.477092,0.0098 -0.836955,-0.11815 -1.077157,-0.383568 -0.231042,-0.2553 -0.257758,-0.383002 -0.08882,-0.383002 z m -7.5734703,0.610427 c 0.072549,0.0059 0.1555683,0.05544 0.2483568,0.148222 0.1219517,0.121954 0.4668686,0.221767 0.7665687,0.221767 0.2996997,0 0.7745651,0.08775 1.055658,0.194612 0.4765347,0.18118 0.5114227,0.281958 0.5114227,1.494102 0,1.287323 -0.00563,1.300016 -0.5481954,1.292133 C 4.4365545,61.285545 3.5131048,60.86662 2.9132505,60.341814 2.6476608,60.109454 2.567499,59.78255 2.6004002,59.061561 2.6352092,58.298693 2.7617943,57.925312 2.9794411,57.943106 Z m 11.1324973,0.277775 c 0.175,-0.01102 0.224808,0.247794 0.246093,1.094693 0.01644,0.654062 0.03884,1.29384 0.04978,1.421688 0.02344,0.27347 -0.343497,0.43382 -0.540841,0.236476 -0.07533,-0.07534 -0.136907,-0.695256 -0.136907,-1.37756 0,-0.918915 0.07733,-1.269967 0.298707,-1.354931 0.03041,-0.01167 0.05817,-0.01879 0.08317,-0.02036 z m -5.2573586,0.489359 c 1.4893306,0.0038 1.3977846,0.126503 1.5993286,1.84429 l 0.134078,1.14561 H 9.2828397 7.977128 L 7.914897,61.068221 C 7.846744,60.378116 7.3542558,60.022294 7.3542558,60.663156 c 0,0.21488 -0.1150573,0.486341 -0.2557117,0.603071 -0.481847,0.399895 -0.8093499,-0.08869 -0.9000815,-1.343053 l -0.087123,-1.2118 h 2.0026955 c 0.2827546,0 0.5277831,-0.0017 0.7405445,-0.0011 z m 3.1913006,0.0011 h 0.862743 l 0.125028,0.946472 c 0.196484,1.489024 0.19724,1.530329 0.03224,1.793374 -0.252324,0.402274 -0.648859,0.287412 -0.898384,-0.260237 -0.255092,-0.559867 -0.629095,-0.48684 -0.629095,0.122764 0,0.2127 -0.07978,0.386395 -0.17764,0.386395 -0.269495,0 -0.419774,-0.534814 -0.419774,-1.494102 0,-1.328419 0.122604,-1.494666 1.104876,-1.494666 z m 8.46054,0.64437 c -0.126201,0.01576 -0.275161,0.15511 -0.514253,0.451455 -0.265234,0.32875 -0.482537,0.670042 -0.483135,0.758083 -0.0017,0.284459 1.087069,1.533696 1.336828,1.533702 0.133123,4e-6 0.338124,0.17911 0.455415,0.398277 0.117292,0.219166 0.334907,0.398275 0.483701,0.398275 0.148795,0 0.322185,0.134899 0.385265,0.299273 0.06308,0.164375 0.306513,0.298708 0.54084,0.298708 0.329148,0 0.392329,-0.07912 0.278341,-0.348492 -0.08114,-0.191769 -0.14072,-0.505779 -0.132947,-0.697549 0.0079,-0.19177 -0.122964,-0.348492 -0.290787,-0.348492 -0.167824,0 -0.354105,-0.186246 -0.413551,-0.41355 -0.08326,-0.318387 -0.215351,-0.386098 -0.574785,-0.295879 -0.430195,0.107975 -0.456643,0.06951 -0.343966,-0.493885 0.118064,-0.590315 0.102338,-0.606552 -0.453151,-0.471256 l -0.574786,0.140302 0.384133,-0.433351 c 0.30655,-0.345853 0.333159,-0.482028 0.134079,-0.677183 -0.07415,-0.07268 -0.141522,-0.10789 -0.217241,-0.09844 z m -3.357061,3.713473 c -0.153478,0.0045 -0.276159,0.01382 -0.330954,0.02716 -0.109584,0.02667 -0.691124,0.05984 -1.292135,0.07354 -0.853839,0.01948 -1.10666,0.09789 -1.15749,0.360372 -0.0503,0.259741 0.107039,0.350464 0.694155,0.398842 0.712417,0.0586 2.770137,0.05271 3.100218,-0.009 0.08219,-0.01538 0.149353,-0.207397 0.149353,-0.426563 0,-0.311909 -0.140353,-0.403568 -0.647198,-0.422036 -0.178073,-0.0065 -0.362471,-0.0068 -0.515949,-0.0023 z m 4.949033,2.11754 c -0.161375,0 -0.323435,0.157288 -0.360371,0.349057 -0.04711,0.24464 0.06028,0.348492 0.360371,0.348492 0.300102,0 0.407491,-0.103851 0.360372,-0.348492 -0.03693,-0.191769 -0.198998,-0.349057 -0.360372,-0.349057 z"
       id="path1022"
       inkscape:connector-curvature="0" />
    <path
       style="fill:#09097c;fill-opacity:1;stroke-width:0.04685771"
       d="m 12.663291,109.9265 c -0.423718,-0.23224 -0.680901,-0.47704 -0.928907,-0.88421 -0.215109,-0.35314 -0.305923,-0.64855 -0.345548,-1.12402 -0.03156,-0.37878 0.178747,-1.22741 0.380302,-1.53465 l 0.142694,-0.21749 -0.02761,-0.4058 c -0.0426,-0.62618 -0.0019,-1.05073 0.164549,-1.71593 0.122431,-0.48933 0.167162,-0.61283 0.224484,-0.61982 0.08052,-0.01 0.720376,0.8722 1.047932,1.44453 l 0.205515,0.35909 0.322851,-0.0577 0.322854,-0.0577 1.030902,0.25959 c 0.99326,0.25018 1.03331,0.25662 1.096908,0.17785 0.131341,-0.16271 0.560807,-0.41841 1.020107,-0.60737 0.257907,-0.1061 0.528257,-0.23516 0.600775,-0.2868 0.166695,-0.11871 0.267063,-0.095 0.267184,0.063 4.4e-5,0.0677 -0.08789,0.4315 -0.195466,0.80846 -0.15853,0.55568 -0.24154,0.76852 -0.438604,1.12467 l -0.243065,0.43928 0.05368,0.28617 c 0.18164,0.96824 -0.570043,2.22163 -1.595246,2.65999 -0.399111,0.17065 -1.155491,0.34011 -1.497764,0.33552 -0.366596,-0.005 -1.249998,-0.25019 -1.608565,-0.44672 z m 0.987599,0.0218 c -0.06844,-0.0374 -0.05732,-0.0988 0.139371,-0.76858 0.209578,-0.71375 0.217008,-0.73033 0.382643,-0.85361 0.249986,-0.18607 0.244876,-0.24232 -0.0245,-0.26967 -0.123063,-0.0125 -0.239085,-0.0185 -0.257826,-0.0132 -0.04058,0.0113 -0.04968,0.18141 -0.01801,0.3356 0.03601,0.17521 -0.340937,1.47143 -0.437149,1.5032 -0.05283,0.0174 -0.02015,0.0376 0.106851,0.0661 0.10064,0.0224 0.149511,0.0226 0.108613,2.1e-4 z m -0.655496,-0.61372 c 0.0063,-0.025 0.0025,-0.0477 -0.0086,-0.0505 -0.01106,-0.003 -0.03781,0.0123 -0.05951,0.0334 -0.02171,0.0211 -0.01778,0.0439 0.0086,0.0505 0.02647,0.006 0.05325,-0.009 0.05952,-0.0334 z m 1.136431,0.18773 c 0.02171,-0.0211 0.01778,-0.0439 -0.0086,-0.0505 -0.02646,-0.006 -0.05326,0.009 -0.05951,0.0334 -0.0063,0.025 -0.0025,0.0477 0.0086,0.0505 0.01107,0.003 0.03781,-0.0123 0.05952,-0.0334 z m 1.643977,0.33103 c -0.02809,-0.0204 -0.07924,-0.0332 -0.113637,-0.0284 -0.03441,0.005 -0.0114,0.0215 0.05108,0.0371 0.06251,0.0157 0.09065,0.0118 0.06256,-0.009 z m -3.178107,-0.85977 c 0.0063,-0.025 0.0025,-0.0478 -0.0086,-0.0505 -0.01106,-0.003 -0.03781,0.0123 -0.05951,0.0334 -0.02171,0.0211 -0.01778,0.0439 0.0086,0.0505 0.02646,0.007 0.05325,-0.009 0.05951,-0.0334 z m -0.500003,-0.22172 c -0.11472,-0.0874 -0.338514,-0.14339 -0.318196,-0.0796 0.0092,0.0289 0.102817,0.0725 0.208029,0.097 0.148721,0.0346 0.173248,0.0307 0.110158,-0.0174 z m 1.159141,0.29003 c 0.0063,-0.025 -0.0091,-0.0506 -0.03409,-0.0568 -0.02501,-0.007 -0.05058,0.009 -0.05682,0.0341 -0.0063,0.025 0.0091,0.0506 0.03409,0.0568 0.025,0.007 0.05058,-0.009 0.05682,-0.034 z m 2.90683,0.49958 c -0.06571,-0.0275 -0.188391,-0.0584 -0.27261,-0.0687 -0.08423,-0.0104 -0.03047,0.0122 0.119471,0.0499 0.14992,0.0379 0.218869,0.0462 0.153149,0.0188 z m -4.009086,-1.11347 c -0.03145,-0.0336 -0.149738,-0.082 -0.262886,-0.10762 -0.18762,-0.0424 -0.194485,-0.0405 -0.07802,0.0224 0.07023,0.0379 0.188525,0.0863 0.262885,0.10762 0.102818,0.0295 0.121515,0.0241 0.07803,-0.0224 z m 3.500418,0.26949 c 0.337843,-0.0147 0.497292,-0.15687 0.542511,-0.48368 0.04365,-0.31544 -0.01523,-0.44408 -0.289801,-0.63321 -0.206416,-0.14218 -0.263239,-0.16251 -0.440477,-0.15758 -0.446075,0.0124 -0.862358,0.48944 -0.765034,0.87666 0.05999,0.23882 0.48917,0.41799 0.952801,0.39781 z m -0.566567,-0.31575 c -0.172124,-0.15896 -0.180178,-0.40644 -0.01902,-0.58417 0.08938,-0.0985 0.362355,-0.14358 0.56424,-0.0931 0.118595,0.0296 0.167795,0.0763 0.223826,0.21202 0.156203,0.37842 -0.09839,0.69005 -0.482935,0.59112 -0.114225,-0.0293 -0.242962,-0.086 -0.286121,-0.12589 z m -1.753998,-0.31511 c 0.196048,-0.0393 0.431936,-0.28901 0.489188,-0.51784 0.08691,-0.34734 -0.110836,-0.71132 -0.429809,-0.79112 -0.175182,-0.0439 -0.65235,0.0796 -0.825111,0.21344 -0.487898,0.37797 0.106102,1.22779 0.765732,1.09552 z m -0.637271,-0.32611 c -0.181878,-0.23477 -0.04935,-0.61048 0.256694,-0.72773 0.152124,-0.0583 0.463555,0.0188 0.569549,0.14101 0.04502,0.0519 0.08378,0.17307 0.08611,0.26926 0.01129,0.46591 -0.625668,0.68756 -0.912355,0.31749 z m 0.175321,-2.37488 c 0.01094,-0.0437 -0.259521,-0.35491 -0.291658,-0.33563 -0.01219,0.007 -0.0035,0.12077 0.01913,0.25211 0.04044,0.23378 0.04366,0.23757 0.152321,0.17955 0.06105,-0.0326 0.115148,-0.0758 0.120209,-0.096 z m 4.254573,0.75627 c 0.03441,-0.1375 0.05305,-0.25239 0.0414,-0.25531 -0.01164,-0.003 -0.10995,0.0404 -0.218487,0.0963 l -0.19734,0.10159 0.119308,0.14455 c 0.06562,0.0795 0.13579,0.14869 0.155936,0.15373 0.02015,0.005 0.06477,-0.10334 0.09918,-0.24085 z"
       id="path966"
       inkscape:connector-curvature="0" />
  </g>
</svg>
