<svg width="100" height="20" fill="none" xmlns="http://www.w3.org/2000/svg"><g clip-path="url(#clip0_2874_1915)" fill="#fff"><path d="M8.48 2.825C3.066 1.654-.996 5.65.215 10.955c.504 2.204 2.273 3.944 4.52 4.44 5.4 1.191 9.462-2.805 8.265-8.13-.498-2.21-2.273-3.957-4.52-4.44zM6.617 13.582c-2.555 0-4.344-1.839-4.344-4.479s1.782-4.479 4.344-4.479c2.543 0 4.318 1.84 4.318 4.48 0 2.64-1.775 4.478-4.318 4.478zM23.23 2.613c-1.876 0-3.416.622-4.439 1.76V2.706l-2.179.006v12.789h2.253V8.806c0-2.587 1.52-4.135 4.062-4.135 2.253 0 3.444 1.25 3.444 3.619v7.204h2.253v-7.37c-.007-3.447-2.018-5.51-5.394-5.51zm15.91 0c-1.856 0-3.423.675-4.505 1.925V2.706h-2.18V20h2.254v-6.252c1.082 1.204 2.63 1.859 4.438 1.859 3.753 0 6.477-2.74 6.477-6.51-.014-3.758-2.737-6.484-6.483-6.484zm-.12 10.97c-2.556 0-4.345-1.84-4.345-4.48 0-2.64 1.782-4.479 4.345-4.479 2.515 0 4.344 1.886 4.344 4.48 0 2.633-1.789 4.478-4.344 4.478zm34.247-10.87h-2.253V15.5h2.253V2.713zm10.867-.093c-1.877 0-3.417.622-4.439 1.76V2.712h-2.179v12.789h2.253V8.806c0-2.587 1.52-4.135 4.062-4.135 2.253 0 3.444 1.25 3.444 3.619v7.204h2.253v-7.37c0-3.447-2.018-5.504-5.394-5.504zm15.012 10.102l-.282.252c-.397.35-.996.549-1.641.549-1.231 0-1.856-.649-1.856-1.939v-6.98h3.759v-1.95h-3.76v-2.66h-2.239v11.683c0 2.428 1.426 3.817 3.907 3.817 1.11 0 2.132-.337 2.798-.926l.162-.145-.848-1.7zM58.006.357c-5.152 0-8.965 3.652-8.965 8.786 0 5.134 3.813 8.82 8.965 8.82 5.152 0 8.931-3.686 8.931-8.82S63.157.357 58.006.357zm4.069 12.789h-8.212c-.632 0-1.15-.51-1.15-1.131v-5.67c0-.649.531-1.171 1.19-1.171h8.172c.659 0 1.19.522 1.19 1.17v5.624a1.18 1.18 0 01-1.19 1.178z"/></g><defs><clipPath id="clip0_2874_1915"><path fill="#fff" d="M0 0h100v20H0z"/></clipPath></defs></svg>