<?xml version="1.0" encoding="UTF-8" standalone="no"?>
<svg
   xmlns:dc="http://purl.org/dc/elements/1.1/"
   xmlns:cc="http://creativecommons.org/ns#"
   xmlns:rdf="http://www.w3.org/1999/02/22-rdf-syntax-ns#"
   xmlns:svg="http://www.w3.org/2000/svg"
   xmlns="http://www.w3.org/2000/svg"
   xmlns:xlink="http://www.w3.org/1999/xlink"
   xmlns:sodipodi="http://sodipodi.sourceforge.net/DTD/sodipodi-0.dtd"
   xmlns:inkscape="http://www.inkscape.org/namespaces/inkscape"
   width="17.896"
   height="17.606001"
   version="1.1"
   id="svg11"
   sodipodi:docname="onpoint-logo.svg"
   style="fill:none"
   inkscape:version="0.92.4 (5da689c313, 2019-01-14)">
  <metadata
     id="metadata15">
    <rdf:RDF>
      <cc:Work
         rdf:about="">
        <dc:format>image/svg+xml</dc:format>
        <dc:type
           rdf:resource="http://purl.org/dc/dcmitype/StillImage" />
        <dc:title></dc:title>
      </cc:Work>
    </rdf:RDF>
  </metadata>
  <sodipodi:namedview
     pagecolor="#ffffff"
     bordercolor="#666666"
     borderopacity="1"
     objecttolerance="10"
     gridtolerance="10"
     guidetolerance="10"
     inkscape:pageopacity="0"
     inkscape:pageshadow="2"
     inkscape:window-width="1920"
     inkscape:window-height="1017"
     id="namedview13"
     showgrid="false"
     fit-margin-top="0"
     fit-margin-left="0"
     fit-margin-right="0"
     fit-margin-bottom="0"
     showguides="true"
     inkscape:zoom="7.58"
     inkscape:cx="-60.948904"
     inkscape:cy="-3.3328501"
     inkscape:window-x="-8"
     inkscape:window-y="-8"
     inkscape:window-maximized="1"
     inkscape:current-layer="svg11" />
  <defs
     id="defs9">
    <linearGradient
       inkscape:collect="always"
       id="linearGradient955">
      <stop
         style="stop-color:#00a3ff;stop-opacity:1;"
         offset="0"
         id="stop951" />
      <stop
         style="stop-color:#6fd4ff;stop-opacity:1"
         offset="1"
         id="stop953" />
    </linearGradient>
    <clipPath
       id="clip0_2874_1915">
      <path
         d="M 0,0 H 100 V 20 H 0 Z"
         id="path6"
         inkscape:connector-curvature="0"
         style="fill:#ffffff" />
    </clipPath>
    <linearGradient
       inkscape:collect="always"
       xlink:href="#linearGradient955"
       id="linearGradient957"
       x1="-12.968857"
       y1="22.430679"
       x2="-12.968857"
       y2="6.5397954"
       gradientUnits="userSpaceOnUse" />
    <linearGradient
       inkscape:collect="always"
       xlink:href="#linearGradient955"
       id="linearGradient960"
       gradientUnits="userSpaceOnUse"
       x1="-12.968857"
       y1="22.430679"
       x2="-12.968857"
       y2="6.5397954" />
    <linearGradient
       inkscape:collect="always"
       xlink:href="#linearGradient955"
       id="linearGradient982"
       gradientUnits="userSpaceOnUse"
       x1="-12.968857"
       y1="22.430679"
       x2="-12.968857"
       y2="6.5397954" />
    <linearGradient
       inkscape:collect="always"
       xlink:href="#linearGradient955"
       id="linearGradient997"
       gradientUnits="userSpaceOnUse"
       x1="-12.968857"
       y1="22.430679"
       x2="-12.968857"
       y2="6.5397954"
       gradientTransform="translate(-42.480211)" />
    <linearGradient
       inkscape:collect="always"
       xlink:href="#linearGradient955"
       id="linearGradient1019"
       gradientUnits="userSpaceOnUse"
       x1="-12.968857"
       y1="22.430679"
       x2="-12.968857"
       y2="6.5397954" />
  </defs>
  <g
     transform="translate(-66.584522)"
     id="g1033"
     style="fill:#ffffff;fill-opacity:0"
     inkscape:export-xdpi="1164.2975"
     inkscape:export-ydpi="1164.2975">
    <path
       inkscape:connector-curvature="0"
       style="opacity:1;fill:#ffffff;fill-opacity:0;stroke:#c08579;stroke-width:0;stroke-linecap:square;stroke-linejoin:miter;stroke-miterlimit:4;stroke-dasharray:none;stroke-dashoffset:0;stroke-opacity:1"
       d="m -20.408203,5.46875 c -1.337735,0 -2.414063,1.0763278 -2.414063,2.4140625 V 23.667969 c 0,1.337734 1.076328,2.414062 2.414063,2.414062 H -4.625 c 1.3377347,0 2.4160156,-1.076328 2.4160156,-2.414062 V 7.8828125 C -2.2089844,6.5450778 -3.2872653,5.46875 -4.625,5.46875 Z m 7.775391,2.625 c 0.786742,1.97e-5 1.025588,0.02244 1.623046,0.1503906 1.2298301,0.2633794 2.398823,0.8353691 3.369141,1.6503906 0.3024891,0.2540798 0.8601124,0.8276658 1.0859375,1.1171878 0.7400754,0.948821 1.265696,2.06801 1.4960937,3.1875 0.1057994,0.514116 0.1383719,0.823645 0.1542969,1.40625 0.01657,0.605679 0.00498,0.775961 -0.1289062,1.783203 -0.1362206,1.025053 -0.1468363,1.157843 -0.1464844,1.708984 2.37e-4,0.39804 0.010394,0.583895 0.044922,0.773438 0.1620549,0.889377 0.6232319,1.585547 1.3867187,2.08789 l 0.060547,0.03906 -0.1484375,0.05664 c -0.397163,0.14861 -1.0623864,0.249999 -1.6289063,0.25 -0.7882591,-2e-6 -1.5244265,-0.146214 -2.15625,-0.431641 l -0.1425781,-0.06445 -0.1230469,0.09766 c -0.1589302,0.125628 -0.6631104,0.461391 -0.8886718,0.591797 -1.0049911,0.580973 -2.1877816,0.931669 -3.3925786,1.005859 -0.426704,0.02625 -0.582591,0.02501 -0.988281,-0.0039 -1.359198,-0.09695 -2.654676,-0.541163 -3.779297,-1.296875 -0.497207,-0.334109 -0.803844,-0.590141 -1.238281,-1.037109 -0.895489,-0.921314 -1.514166,-1.978295 -1.867188,-3.185547 -0.470707,-1.609709 -0.413723,-3.309288 0.164063,-4.871094 0.139472,-0.377008 0.479837,-1.069981 0.689453,-1.402344 0.206618,-0.327613 0.567036,-0.810991 0.597656,-0.800781 l 0.878906,-0.882812 c -0.02382,-0.062245 0.611416,-0.5484571 1.09375,-0.8378911 0.883799,-0.5303397 1.826834,-0.8694633 2.886719,-1.0351563 0.315615,-0.049344 0.455542,-0.056657 1.097657,-0.056641 z"
       id="path1021" />
    <path
       inkscape:connector-curvature="0"
       style="opacity:1;fill:#ffffff;fill-opacity:0;stroke:#c08579;stroke-width:0;stroke-linecap:square;stroke-linejoin:miter;stroke-miterlimit:4;stroke-dasharray:none;stroke-dashoffset:0;stroke-opacity:1"
       d="m -16.1875,12.3125 c -0.578148,0 -1.042969,0.457969 -1.042969,1.027344 V 18.3125 c 0,0.54481 0.453352,0.992188 1.007813,0.992188 h 7.2050779 c 0.5744774,0.0049 1.0439565,-0.458706 1.0449219,-1.033204 v -4.933593 c 0,-0.568498 -0.466774,-1.025391 -1.0449219,-1.025391 z"
       id="path1023" />
    <g
       id="g1031"
       transform="translate(0.15216388,-0.37477833)"
       style="fill:#ffffff;fill-opacity:0">
      <circle
         r="0.53639364"
         cy="16.183392"
         cx="-14.80913"
         id="circle1025"
         style="opacity:1;fill:#ffffff;fill-opacity:0;stroke:#c08579;stroke-width:0;stroke-linecap:square;stroke-linejoin:miter;stroke-miterlimit:4;stroke-dasharray:none;stroke-dashoffset:0;stroke-opacity:1" />
      <circle
         style="opacity:1;fill:#ffffff;fill-opacity:0;stroke:#c08579;stroke-width:0;stroke-linecap:square;stroke-linejoin:miter;stroke-miterlimit:4;stroke-dasharray:none;stroke-dashoffset:0;stroke-opacity:1"
         id="circle1027"
         cx="-12.743178"
         cy="16.183392"
         r="0.53639364" />
      <circle
         r="0.53639364"
         cy="16.183392"
         cx="-10.698323"
         id="circle1029"
         style="opacity:1;fill:#ffffff;fill-opacity:0;stroke:#c08579;stroke-width:0;stroke-linecap:square;stroke-linejoin:miter;stroke-miterlimit:4;stroke-dasharray:none;stroke-dashoffset:0;stroke-opacity:1" />
    </g>
  </g>
  <g
     clip-path="url(#clip0_2874_1915)"
     id="g4"
     style="fill:#241c1c;fill-opacity:0.61802578"
     transform="matrix(1.1700723,0,0,1.1700723,-80.453328,5.0907559)" />
  <g
     id="g1013"
     transform="translate(-9.3285855)">
    <path
       id="path980"
       d="m -20.408203,5.46875 c -1.337735,0 -2.414063,1.0763278 -2.414063,2.4140625 V 23.667969 c 0,1.337734 1.076328,2.414062 2.414063,2.414062 H -4.625 c 1.3377347,0 2.4160156,-1.076328 2.4160156,-2.414062 V 7.8828125 C -2.2089844,6.5450778 -3.2872653,5.46875 -4.625,5.46875 Z m 7.775391,2.625 c 0.786742,1.97e-5 1.025588,0.02244 1.623046,0.1503906 1.2298301,0.2633794 2.398823,0.8353691 3.369141,1.6503906 0.3024891,0.2540798 0.8601124,0.8276658 1.0859375,1.1171878 0.7400754,0.948821 1.265696,2.06801 1.4960937,3.1875 0.1057994,0.514116 0.1383719,0.823645 0.1542969,1.40625 0.01657,0.605679 0.00498,0.775961 -0.1289062,1.783203 -0.1362206,1.025053 -0.1468363,1.157843 -0.1464844,1.708984 2.37e-4,0.39804 0.010394,0.583895 0.044922,0.773438 0.1620549,0.889377 0.6232319,1.585547 1.3867187,2.08789 l 0.060547,0.03906 -0.1484375,0.05664 c -0.397163,0.14861 -1.0623864,0.249999 -1.6289063,0.25 -0.7882591,-2e-6 -1.5244265,-0.146214 -2.15625,-0.431641 l -0.1425781,-0.06445 -0.1230469,0.09766 c -0.1589302,0.125628 -0.6631104,0.461391 -0.8886718,0.591797 -1.0049911,0.580973 -2.1877816,0.931669 -3.3925786,1.005859 -0.426704,0.02625 -0.582591,0.02501 -0.988281,-0.0039 -1.359198,-0.09695 -2.654676,-0.541163 -3.779297,-1.296875 -0.497207,-0.334109 -0.803844,-0.590141 -1.238281,-1.037109 -0.895489,-0.921314 -1.514166,-1.978295 -1.867188,-3.185547 -0.470707,-1.609709 -0.413723,-3.309288 0.164063,-4.871094 0.139472,-0.377008 0.479837,-1.069981 0.689453,-1.402344 0.206618,-0.327613 0.567036,-0.810991 0.597656,-0.800781 l 0.878906,-0.882812 c -0.02382,-0.062245 0.611416,-0.5484571 1.09375,-0.8378911 0.883799,-0.5303397 1.826834,-0.8694633 2.886719,-1.0351563 0.315615,-0.049344 0.455542,-0.056657 1.097657,-0.056641 z"
       style="opacity:1;fill:url(#linearGradient982);fill-opacity:1;stroke:#c08579;stroke-width:0;stroke-linecap:square;stroke-linejoin:miter;stroke-miterlimit:4;stroke-dasharray:none;stroke-dashoffset:0;stroke-opacity:1"
       inkscape:connector-curvature="0" />
    <path
       id="rect895"
       d="m -16.1875,12.3125 c -0.578148,0 -1.042969,0.457969 -1.042969,1.027344 V 18.3125 c 0,0.54481 0.453352,0.992188 1.007813,0.992188 h 7.2050779 c 0.5744774,0.0049 1.0439565,-0.458706 1.0449219,-1.033204 v -4.933593 c 0,-0.568498 -0.466774,-1.025391 -1.0449219,-1.025391 z"
       style="opacity:1;fill:url(#linearGradient1019);fill-opacity:1;stroke:#c08579;stroke-width:0;stroke-linecap:square;stroke-linejoin:miter;stroke-miterlimit:4;stroke-dasharray:none;stroke-dashoffset:0;stroke-opacity:1"
       inkscape:connector-curvature="0" />
    <g
       transform="translate(0.15216388,-0.37477833)"
       id="g974">
      <circle
         style="opacity:1;fill:#ffffff;fill-opacity:1;stroke:#c08579;stroke-width:0;stroke-linecap:square;stroke-linejoin:miter;stroke-miterlimit:4;stroke-dasharray:none;stroke-dashoffset:0;stroke-opacity:1"
         id="path963"
         cx="-14.80913"
         cy="16.183392"
         r="0.53639364" />
      <circle
         r="0.53639364"
         cy="16.183392"
         cx="-12.743178"
         id="circle965"
         style="opacity:1;fill:#ffffff;fill-opacity:1;stroke:#c08579;stroke-width:0;stroke-linecap:square;stroke-linejoin:miter;stroke-miterlimit:4;stroke-dasharray:none;stroke-dashoffset:0;stroke-opacity:1" />
      <circle
         style="opacity:1;fill:#ffffff;fill-opacity:1;stroke:#c08579;stroke-width:0;stroke-linecap:square;stroke-linejoin:miter;stroke-miterlimit:4;stroke-dasharray:none;stroke-dashoffset:0;stroke-opacity:1"
         id="circle969"
         cx="-10.698323"
         cy="16.183392"
         r="0.53639364" />
    </g>
  </g>
  <g
     id="g1017"
     transform="translate(-24.104053)"
     inkscape:export-xdpi="1164.2975"
     inkscape:export-ydpi="1164.2975">
    <path
       id="path985"
       d="m -55.113281,8.09375 c -0.642115,-1.6e-5 -0.782041,0.0073 -1.097657,0.056641 -1.059885,0.165693 -2.002919,0.5048166 -2.886718,1.0351563 -0.482334,0.289434 -1.11757,0.7756451 -1.09375,0.8378907 l -0.878906,0.882812 c -0.03062,-0.01021 -0.391039,0.473168 -0.597657,0.800781 -0.209616,0.332363 -0.549981,1.025336 -0.689453,1.402344 -0.577786,1.561806 -0.634769,3.261385 -0.164062,4.871094 0.353022,1.207252 0.971698,2.264233 1.867187,3.185547 0.434437,0.446968 0.741074,0.703 1.238281,1.037109 1.124621,0.755712 2.420099,1.199925 3.779297,1.296875 0.40569,0.02891 0.561577,0.03016 0.988281,0.0039 1.204798,-0.07419 2.387588,-0.424886 3.392579,-1.005859 0.225562,-0.130406 0.729742,-0.466169 0.888671,-0.591797 l 0.123047,-0.09766 0.142579,0.06445 c 0.631824,0.285427 1.367991,0.431639 2.15625,0.431641 0.56652,-1e-6 1.231743,-0.10139 1.628906,-0.25 l 0.148437,-0.05664 -0.06055,-0.03906 c -0.763487,-0.502343 -1.224663,-1.198513 -1.386718,-2.08789 -0.03453,-0.189543 -0.04469,-0.375398 -0.04492,-0.773438 -3.52e-4,-0.551141 0.01026,-0.683931 0.146484,-1.708984 0.133906,-1.007242 0.145476,-1.177524 0.128906,-1.783203 -0.01593,-0.582605 -0.0485,-0.892134 -0.154296,-1.40625 -0.230399,-1.11949 -0.756018,-2.238679 -1.496094,-3.1875 -0.225825,-0.289522 -0.783449,-0.863108 -1.085938,-1.1171874 C -51.091412,9.0795097 -52.260404,8.50752 -53.490234,8.2441406 -54.087692,8.11619 -54.326539,8.0937697 -55.113281,8.09375 Z m -3.554688,4.21875 h 7.169922 c 0.578148,0 1.044922,0.456893 1.044922,1.025391 v 4.933593 c -9.66e-4,0.574498 -0.470445,1.038103 -1.044922,1.033204 h -7.205078 c -0.554461,0 -1.007813,-0.447378 -1.007813,-0.992188 v -4.972656 c 0,-0.569375 0.464821,-1.027344 1.042969,-1.027344 z m 1.53125,2.958984 a 0.53639364,0.53639364 0 0 0 -0.537109,0.53711 0.53639364,0.53639364 0 0 0 0.537109,0.537109 0.53639364,0.53639364 0 0 0 0.535157,-0.537109 0.53639364,0.53639364 0 0 0 -0.535157,-0.53711 z m 2.066407,0 a 0.53639364,0.53639364 0 0 0 -0.53711,0.53711 0.53639364,0.53639364 0 0 0 0.53711,0.537109 0.53639364,0.53639364 0 0 0 0.535156,-0.537109 0.53639364,0.53639364 0 0 0 -0.535156,-0.53711 z m 2.042968,0 a 0.53639364,0.53639364 0 0 0 -0.535156,0.53711 0.53639364,0.53639364 0 0 0 0.535156,0.537109 0.53639364,0.53639364 0 0 0 0.53711,-0.537109 0.53639364,0.53639364 0 0 0 -0.53711,-0.53711 z"
       style="opacity:1;fill:url(#linearGradient997);fill-opacity:1;stroke:#c08579;stroke-width:0;stroke-linecap:square;stroke-linejoin:miter;stroke-miterlimit:4;stroke-dasharray:none;stroke-dashoffset:0;stroke-opacity:1"
       inkscape:connector-curvature="0" />
    <g
       id="g995"
       transform="translate(-42.328047,-0.37477833)" />
  </g>
</svg>
